<svg xmlns="http://www.w3.org/2000/svg" viewBox="0 0 980 280" role="img" aria-labelledby="title">
<title>Lucas Cipolla — Applied Systems & AI</title>
<defs><linearGradient id="t" x1="0" y1="0" x2="1" y2="1"><stop offset="0" stop-color="#0a1d3c"/><stop offset=".5" stop-color="#175fc5"/><stop offset="1" stop-color="#4fc9ff"/></linearGradient></defs>
<rect width="100%" height="100%" fill="none"/>
<g transform="translate(20 8) scale(.48)">
  <path d="M78 74 L132 104 L132 326 L210 248 L254 282 L150 386 L78 386 Z" fill="#092c5a" stroke="#53c8ff" stroke-width="4"/>
  <path d="M142 330 L262 210 C300 172 332 154 368 154 H442 L410 204 H364 C334 204 312 215 286 240 L232 292 C216 307 197 320 176 330 Z" fill="url(#t)" stroke="#7dd9ff" stroke-width="4"/>
  <path d="M254 282 L314 222 C336 200 356 191 382 191 H442 L410 241 H368 C348 241 337 247 324 260 L294 290 C280 304 277 319 286 333 C296 347 311 354 333 354 H439 L405 406 H326 C283 406 249 394 226 369 C209 351 204 333 210 313 Z" fill="#0a3d85" stroke="#4abfff" stroke-width="4"/>
</g>
<text x="280" y="125" font-family="Arial,Helvetica,sans-serif" font-size="72" font-weight="700" fill="currentColor">Lucas Cipolla</text>
<text x="286" y="170" font-family="Arial,Helvetica,sans-serif" font-size="22" letter-spacing="8" fill="#5d7898">APPLIED SYSTEMS &amp; AI</text>
<text x="286" y="214" font-family="Arial,Helvetica,sans-serif" font-size="18" letter-spacing="6" fill="#2587e8">encarar.com.ar</text>
</svg>